<?xml version="1.0" encoding="UTF-8" standalone="no"?>
<svg>
<metadata>built for 'CodeUS' braille table on Mon Nov 17 18:00:59 CET 2014</metadata>
<defs>
<font horiz-adv-x="600" id="Braille-CodeUS-thermo" vert-adv-y="">
<font-face ascent="648" descent="-254" font-family="Braille" font-stretch="normal" font-weight="normal" units-per-em="1024"/>
<missing-glyph/>
<glyph horiz-adv-x="600" unicode=" "/>
<glyph d="M 70 578 m -70, 0 a 70,70 0 1,1 140,0 a 70,70 0 1,1 -140,0 z " horiz-adv-x="600" unicode="A"/>
<glyph d="M 70 324 m -70, 0 a 70,70 0 1,1 140,0 a 70,70 0 1,1 -140,0 z " horiz-adv-x="600" unicode="1"/>
<glyph d="M 70 578 m -70, 0 a 70,70 0 1,1 140,0 a 70,70 0 1,1 -140,0 z M 70 324 m -70, 0 a 70,70 0 1,1 140,0 a 70,70 0 1,1 -140,0 z " horiz-adv-x="600" unicode="B"/>
<glyph d="M 70 70 m -70, 0 a 70,70 0 1,1 140,0 a 70,70 0 1,1 -140,0 z " horiz-adv-x="600" unicode="'"/>
<glyph d="M 70 578 m -70, 0 a 70,70 0 1,1 140,0 a 70,70 0 1,1 -140,0 z M 70 70 m -70, 0 a 70,70 0 1,1 140,0 a 70,70 0 1,1 -140,0 z " horiz-adv-x="600" unicode="K"/>
<glyph d="M 70 324 m -70, 0 a 70,70 0 1,1 140,0 a 70,70 0 1,1 -140,0 z M 70 70 m -70, 0 a 70,70 0 1,1 140,0 a 70,70 0 1,1 -140,0 z " horiz-adv-x="600" unicode="2"/>
<glyph d="M 70 578 m -70, 0 a 70,70 0 1,1 140,0 a 70,70 0 1,1 -140,0 z M 70 324 m -70, 0 a 70,70 0 1,1 140,0 a 70,70 0 1,1 -140,0 z M 70 70 m -70, 0 a 70,70 0 1,1 140,0 a 70,70 0 1,1 -140,0 z " horiz-adv-x="600" unicode="L"/>
<glyph d="M 299 578 m -70, 0 a 70,70 0 1,1 140,0 a 70,70 0 1,1 -140,0 z " horiz-adv-x="600" unicode="@"/>
<glyph d="M 70 578 m -70, 0 a 70,70 0 1,1 140,0 a 70,70 0 1,1 -140,0 z M 299 578 m -70, 0 a 70,70 0 1,1 140,0 a 70,70 0 1,1 -140,0 z " horiz-adv-x="600" unicode="C"/>
<glyph d="M 70 324 m -70, 0 a 70,70 0 1,1 140,0 a 70,70 0 1,1 -140,0 z M 299 578 m -70, 0 a 70,70 0 1,1 140,0 a 70,70 0 1,1 -140,0 z " horiz-adv-x="600" unicode="I"/>
<glyph d="M 70 578 m -70, 0 a 70,70 0 1,1 140,0 a 70,70 0 1,1 -140,0 z M 70 324 m -70, 0 a 70,70 0 1,1 140,0 a 70,70 0 1,1 -140,0 z M 299 578 m -70, 0 a 70,70 0 1,1 140,0 a 70,70 0 1,1 -140,0 z " horiz-adv-x="600" unicode="F"/>
<glyph d="M 70 70 m -70, 0 a 70,70 0 1,1 140,0 a 70,70 0 1,1 -140,0 z M 299 578 m -70, 0 a 70,70 0 1,1 140,0 a 70,70 0 1,1 -140,0 z " horiz-adv-x="600" unicode="/"/>
<glyph d="M 70 578 m -70, 0 a 70,70 0 1,1 140,0 a 70,70 0 1,1 -140,0 z M 70 70 m -70, 0 a 70,70 0 1,1 140,0 a 70,70 0 1,1 -140,0 z M 299 578 m -70, 0 a 70,70 0 1,1 140,0 a 70,70 0 1,1 -140,0 z " horiz-adv-x="600" unicode="M"/>
<glyph d="M 70 324 m -70, 0 a 70,70 0 1,1 140,0 a 70,70 0 1,1 -140,0 z M 70 70 m -70, 0 a 70,70 0 1,1 140,0 a 70,70 0 1,1 -140,0 z M 299 578 m -70, 0 a 70,70 0 1,1 140,0 a 70,70 0 1,1 -140,0 z " horiz-adv-x="600" unicode="S"/>
<glyph d="M 70 578 m -70, 0 a 70,70 0 1,1 140,0 a 70,70 0 1,1 -140,0 z M 70 324 m -70, 0 a 70,70 0 1,1 140,0 a 70,70 0 1,1 -140,0 z M 70 70 m -70, 0 a 70,70 0 1,1 140,0 a 70,70 0 1,1 -140,0 z M 299 578 m -70, 0 a 70,70 0 1,1 140,0 a 70,70 0 1,1 -140,0 z " horiz-adv-x="600" unicode="P"/>
<glyph d="M 299 324 m -70, 0 a 70,70 0 1,1 140,0 a 70,70 0 1,1 -140,0 z " horiz-adv-x="600" unicode="&quot;"/>
<glyph d="M 70 578 m -70, 0 a 70,70 0 1,1 140,0 a 70,70 0 1,1 -140,0 z M 299 324 m -70, 0 a 70,70 0 1,1 140,0 a 70,70 0 1,1 -140,0 z " horiz-adv-x="600" unicode="E"/>
<glyph d="M 70 324 m -70, 0 a 70,70 0 1,1 140,0 a 70,70 0 1,1 -140,0 z M 299 324 m -70, 0 a 70,70 0 1,1 140,0 a 70,70 0 1,1 -140,0 z " horiz-adv-x="600" unicode="3"/>
<glyph d="M 70 578 m -70, 0 a 70,70 0 1,1 140,0 a 70,70 0 1,1 -140,0 z M 70 324 m -70, 0 a 70,70 0 1,1 140,0 a 70,70 0 1,1 -140,0 z M 299 324 m -70, 0 a 70,70 0 1,1 140,0 a 70,70 0 1,1 -140,0 z " horiz-adv-x="600" unicode="H"/>
<glyph d="M 70 70 m -70, 0 a 70,70 0 1,1 140,0 a 70,70 0 1,1 -140,0 z M 299 324 m -70, 0 a 70,70 0 1,1 140,0 a 70,70 0 1,1 -140,0 z " horiz-adv-x="600" unicode="9"/>
<glyph d="M 70 578 m -70, 0 a 70,70 0 1,1 140,0 a 70,70 0 1,1 -140,0 z M 70 70 m -70, 0 a 70,70 0 1,1 140,0 a 70,70 0 1,1 -140,0 z M 299 324 m -70, 0 a 70,70 0 1,1 140,0 a 70,70 0 1,1 -140,0 z " horiz-adv-x="600" unicode="O"/>
<glyph d="M 70 324 m -70, 0 a 70,70 0 1,1 140,0 a 70,70 0 1,1 -140,0 z M 70 70 m -70, 0 a 70,70 0 1,1 140,0 a 70,70 0 1,1 -140,0 z M 299 324 m -70, 0 a 70,70 0 1,1 140,0 a 70,70 0 1,1 -140,0 z " horiz-adv-x="600" unicode="6"/>
<glyph d="M 70 578 m -70, 0 a 70,70 0 1,1 140,0 a 70,70 0 1,1 -140,0 z M 70 324 m -70, 0 a 70,70 0 1,1 140,0 a 70,70 0 1,1 -140,0 z M 70 70 m -70, 0 a 70,70 0 1,1 140,0 a 70,70 0 1,1 -140,0 z M 299 324 m -70, 0 a 70,70 0 1,1 140,0 a 70,70 0 1,1 -140,0 z " horiz-adv-x="600" unicode="R"/>
<glyph d="M 299 578 m -70, 0 a 70,70 0 1,1 140,0 a 70,70 0 1,1 -140,0 z M 299 324 m -70, 0 a 70,70 0 1,1 140,0 a 70,70 0 1,1 -140,0 z " horiz-adv-x="600" unicode="^"/>
<glyph d="M 70 578 m -70, 0 a 70,70 0 1,1 140,0 a 70,70 0 1,1 -140,0 z M 299 578 m -70, 0 a 70,70 0 1,1 140,0 a 70,70 0 1,1 -140,0 z M 299 324 m -70, 0 a 70,70 0 1,1 140,0 a 70,70 0 1,1 -140,0 z " horiz-adv-x="600" unicode="D"/>
<glyph d="M 70 324 m -70, 0 a 70,70 0 1,1 140,0 a 70,70 0 1,1 -140,0 z M 299 578 m -70, 0 a 70,70 0 1,1 140,0 a 70,70 0 1,1 -140,0 z M 299 324 m -70, 0 a 70,70 0 1,1 140,0 a 70,70 0 1,1 -140,0 z " horiz-adv-x="600" unicode="J"/>
<glyph d="M 70 578 m -70, 0 a 70,70 0 1,1 140,0 a 70,70 0 1,1 -140,0 z M 70 324 m -70, 0 a 70,70 0 1,1 140,0 a 70,70 0 1,1 -140,0 z M 299 578 m -70, 0 a 70,70 0 1,1 140,0 a 70,70 0 1,1 -140,0 z M 299 324 m -70, 0 a 70,70 0 1,1 140,0 a 70,70 0 1,1 -140,0 z " horiz-adv-x="600" unicode="G"/>
<glyph d="M 70 70 m -70, 0 a 70,70 0 1,1 140,0 a 70,70 0 1,1 -140,0 z M 299 578 m -70, 0 a 70,70 0 1,1 140,0 a 70,70 0 1,1 -140,0 z M 299 324 m -70, 0 a 70,70 0 1,1 140,0 a 70,70 0 1,1 -140,0 z " horiz-adv-x="600" unicode="&gt;"/>
<glyph d="M 70 578 m -70, 0 a 70,70 0 1,1 140,0 a 70,70 0 1,1 -140,0 z M 70 70 m -70, 0 a 70,70 0 1,1 140,0 a 70,70 0 1,1 -140,0 z M 299 578 m -70, 0 a 70,70 0 1,1 140,0 a 70,70 0 1,1 -140,0 z M 299 324 m -70, 0 a 70,70 0 1,1 140,0 a 70,70 0 1,1 -140,0 z " horiz-adv-x="600" unicode="N"/>
<glyph d="M 70 324 m -70, 0 a 70,70 0 1,1 140,0 a 70,70 0 1,1 -140,0 z M 70 70 m -70, 0 a 70,70 0 1,1 140,0 a 70,70 0 1,1 -140,0 z M 299 578 m -70, 0 a 70,70 0 1,1 140,0 a 70,70 0 1,1 -140,0 z M 299 324 m -70, 0 a 70,70 0 1,1 140,0 a 70,70 0 1,1 -140,0 z " horiz-adv-x="600" unicode="T"/>
<glyph d="M 70 578 m -70, 0 a 70,70 0 1,1 140,0 a 70,70 0 1,1 -140,0 z M 70 324 m -70, 0 a 70,70 0 1,1 140,0 a 70,70 0 1,1 -140,0 z M 70 70 m -70, 0 a 70,70 0 1,1 140,0 a 70,70 0 1,1 -140,0 z M 299 578 m -70, 0 a 70,70 0 1,1 140,0 a 70,70 0 1,1 -140,0 z M 299 324 m -70, 0 a 70,70 0 1,1 140,0 a 70,70 0 1,1 -140,0 z " horiz-adv-x="600" unicode="Q"/>
<glyph d="M 299 70 m -70, 0 a 70,70 0 1,1 140,0 a 70,70 0 1,1 -140,0 z " horiz-adv-x="600" unicode=","/>
<glyph d="M 70 578 m -70, 0 a 70,70 0 1,1 140,0 a 70,70 0 1,1 -140,0 z M 299 70 m -70, 0 a 70,70 0 1,1 140,0 a 70,70 0 1,1 -140,0 z " horiz-adv-x="600" unicode="*"/>
<glyph d="M 70 324 m -70, 0 a 70,70 0 1,1 140,0 a 70,70 0 1,1 -140,0 z M 299 70 m -70, 0 a 70,70 0 1,1 140,0 a 70,70 0 1,1 -140,0 z " horiz-adv-x="600" unicode="5"/>
<glyph d="M 70 578 m -70, 0 a 70,70 0 1,1 140,0 a 70,70 0 1,1 -140,0 z M 70 324 m -70, 0 a 70,70 0 1,1 140,0 a 70,70 0 1,1 -140,0 z M 299 70 m -70, 0 a 70,70 0 1,1 140,0 a 70,70 0 1,1 -140,0 z " horiz-adv-x="600" unicode="&lt;"/>
<glyph d="M 70 70 m -70, 0 a 70,70 0 1,1 140,0 a 70,70 0 1,1 -140,0 z M 299 70 m -70, 0 a 70,70 0 1,1 140,0 a 70,70 0 1,1 -140,0 z " horiz-adv-x="600" unicode="-"/>
<glyph d="M 70 578 m -70, 0 a 70,70 0 1,1 140,0 a 70,70 0 1,1 -140,0 z M 70 70 m -70, 0 a 70,70 0 1,1 140,0 a 70,70 0 1,1 -140,0 z M 299 70 m -70, 0 a 70,70 0 1,1 140,0 a 70,70 0 1,1 -140,0 z " horiz-adv-x="600" unicode="U"/>
<glyph d="M 70 324 m -70, 0 a 70,70 0 1,1 140,0 a 70,70 0 1,1 -140,0 z M 70 70 m -70, 0 a 70,70 0 1,1 140,0 a 70,70 0 1,1 -140,0 z M 299 70 m -70, 0 a 70,70 0 1,1 140,0 a 70,70 0 1,1 -140,0 z " horiz-adv-x="600" unicode="8"/>
<glyph d="M 70 578 m -70, 0 a 70,70 0 1,1 140,0 a 70,70 0 1,1 -140,0 z M 70 324 m -70, 0 a 70,70 0 1,1 140,0 a 70,70 0 1,1 -140,0 z M 70 70 m -70, 0 a 70,70 0 1,1 140,0 a 70,70 0 1,1 -140,0 z M 299 70 m -70, 0 a 70,70 0 1,1 140,0 a 70,70 0 1,1 -140,0 z " horiz-adv-x="600" unicode="V"/>
<glyph d="M 299 578 m -70, 0 a 70,70 0 1,1 140,0 a 70,70 0 1,1 -140,0 z M 299 70 m -70, 0 a 70,70 0 1,1 140,0 a 70,70 0 1,1 -140,0 z " horiz-adv-x="600" unicode="."/>
<glyph d="M 70 578 m -70, 0 a 70,70 0 1,1 140,0 a 70,70 0 1,1 -140,0 z M 299 578 m -70, 0 a 70,70 0 1,1 140,0 a 70,70 0 1,1 -140,0 z M 299 70 m -70, 0 a 70,70 0 1,1 140,0 a 70,70 0 1,1 -140,0 z " horiz-adv-x="600" unicode="%"/>
<glyph d="M 70 324 m -70, 0 a 70,70 0 1,1 140,0 a 70,70 0 1,1 -140,0 z M 299 578 m -70, 0 a 70,70 0 1,1 140,0 a 70,70 0 1,1 -140,0 z M 299 70 m -70, 0 a 70,70 0 1,1 140,0 a 70,70 0 1,1 -140,0 z " horiz-adv-x="600" unicode="["/>
<glyph d="M 70 578 m -70, 0 a 70,70 0 1,1 140,0 a 70,70 0 1,1 -140,0 z M 70 324 m -70, 0 a 70,70 0 1,1 140,0 a 70,70 0 1,1 -140,0 z M 299 578 m -70, 0 a 70,70 0 1,1 140,0 a 70,70 0 1,1 -140,0 z M 299 70 m -70, 0 a 70,70 0 1,1 140,0 a 70,70 0 1,1 -140,0 z " horiz-adv-x="600" unicode="$"/>
<glyph d="M 70 70 m -70, 0 a 70,70 0 1,1 140,0 a 70,70 0 1,1 -140,0 z M 299 578 m -70, 0 a 70,70 0 1,1 140,0 a 70,70 0 1,1 -140,0 z M 299 70 m -70, 0 a 70,70 0 1,1 140,0 a 70,70 0 1,1 -140,0 z " horiz-adv-x="600" unicode="+"/>
<glyph d="M 70 578 m -70, 0 a 70,70 0 1,1 140,0 a 70,70 0 1,1 -140,0 z M 70 70 m -70, 0 a 70,70 0 1,1 140,0 a 70,70 0 1,1 -140,0 z M 299 578 m -70, 0 a 70,70 0 1,1 140,0 a 70,70 0 1,1 -140,0 z M 299 70 m -70, 0 a 70,70 0 1,1 140,0 a 70,70 0 1,1 -140,0 z " horiz-adv-x="600" unicode="X"/>
<glyph d="M 70 324 m -70, 0 a 70,70 0 1,1 140,0 a 70,70 0 1,1 -140,0 z M 70 70 m -70, 0 a 70,70 0 1,1 140,0 a 70,70 0 1,1 -140,0 z M 299 578 m -70, 0 a 70,70 0 1,1 140,0 a 70,70 0 1,1 -140,0 z M 299 70 m -70, 0 a 70,70 0 1,1 140,0 a 70,70 0 1,1 -140,0 z " horiz-adv-x="600" unicode="!"/>
<glyph d="M 70 578 m -70, 0 a 70,70 0 1,1 140,0 a 70,70 0 1,1 -140,0 z M 70 324 m -70, 0 a 70,70 0 1,1 140,0 a 70,70 0 1,1 -140,0 z M 70 70 m -70, 0 a 70,70 0 1,1 140,0 a 70,70 0 1,1 -140,0 z M 299 578 m -70, 0 a 70,70 0 1,1 140,0 a 70,70 0 1,1 -140,0 z M 299 70 m -70, 0 a 70,70 0 1,1 140,0 a 70,70 0 1,1 -140,0 z " horiz-adv-x="600" unicode="&amp;"/>
<glyph d="M 299 324 m -70, 0 a 70,70 0 1,1 140,0 a 70,70 0 1,1 -140,0 z M 299 70 m -70, 0 a 70,70 0 1,1 140,0 a 70,70 0 1,1 -140,0 z " horiz-adv-x="600" unicode=";"/>
<glyph d="M 70 578 m -70, 0 a 70,70 0 1,1 140,0 a 70,70 0 1,1 -140,0 z M 299 324 m -70, 0 a 70,70 0 1,1 140,0 a 70,70 0 1,1 -140,0 z M 299 70 m -70, 0 a 70,70 0 1,1 140,0 a 70,70 0 1,1 -140,0 z " horiz-adv-x="600" unicode=":"/>
<glyph d="M 70 324 m -70, 0 a 70,70 0 1,1 140,0 a 70,70 0 1,1 -140,0 z M 299 324 m -70, 0 a 70,70 0 1,1 140,0 a 70,70 0 1,1 -140,0 z M 299 70 m -70, 0 a 70,70 0 1,1 140,0 a 70,70 0 1,1 -140,0 z " horiz-adv-x="600" unicode="4"/>
<glyph d="M 70 578 m -70, 0 a 70,70 0 1,1 140,0 a 70,70 0 1,1 -140,0 z M 70 324 m -70, 0 a 70,70 0 1,1 140,0 a 70,70 0 1,1 -140,0 z M 299 324 m -70, 0 a 70,70 0 1,1 140,0 a 70,70 0 1,1 -140,0 z M 299 70 m -70, 0 a 70,70 0 1,1 140,0 a 70,70 0 1,1 -140,0 z " horiz-adv-x="600" unicode="\"/>
<glyph d="M 70 70 m -70, 0 a 70,70 0 1,1 140,0 a 70,70 0 1,1 -140,0 z M 299 324 m -70, 0 a 70,70 0 1,1 140,0 a 70,70 0 1,1 -140,0 z M 299 70 m -70, 0 a 70,70 0 1,1 140,0 a 70,70 0 1,1 -140,0 z " horiz-adv-x="600" unicode="0"/>
<glyph d="M 70 578 m -70, 0 a 70,70 0 1,1 140,0 a 70,70 0 1,1 -140,0 z M 70 70 m -70, 0 a 70,70 0 1,1 140,0 a 70,70 0 1,1 -140,0 z M 299 324 m -70, 0 a 70,70 0 1,1 140,0 a 70,70 0 1,1 -140,0 z M 299 70 m -70, 0 a 70,70 0 1,1 140,0 a 70,70 0 1,1 -140,0 z " horiz-adv-x="600" unicode="Z"/>
<glyph d="M 70 324 m -70, 0 a 70,70 0 1,1 140,0 a 70,70 0 1,1 -140,0 z M 70 70 m -70, 0 a 70,70 0 1,1 140,0 a 70,70 0 1,1 -140,0 z M 299 324 m -70, 0 a 70,70 0 1,1 140,0 a 70,70 0 1,1 -140,0 z M 299 70 m -70, 0 a 70,70 0 1,1 140,0 a 70,70 0 1,1 -140,0 z " horiz-adv-x="600" unicode="7"/>
<glyph d="M 70 578 m -70, 0 a 70,70 0 1,1 140,0 a 70,70 0 1,1 -140,0 z M 70 324 m -70, 0 a 70,70 0 1,1 140,0 a 70,70 0 1,1 -140,0 z M 70 70 m -70, 0 a 70,70 0 1,1 140,0 a 70,70 0 1,1 -140,0 z M 299 324 m -70, 0 a 70,70 0 1,1 140,0 a 70,70 0 1,1 -140,0 z M 299 70 m -70, 0 a 70,70 0 1,1 140,0 a 70,70 0 1,1 -140,0 z " horiz-adv-x="600" unicode="("/>
<glyph d="M 299 578 m -70, 0 a 70,70 0 1,1 140,0 a 70,70 0 1,1 -140,0 z M 299 324 m -70, 0 a 70,70 0 1,1 140,0 a 70,70 0 1,1 -140,0 z M 299 70 m -70, 0 a 70,70 0 1,1 140,0 a 70,70 0 1,1 -140,0 z " horiz-adv-x="600" unicode="_"/>
<glyph d="M 70 578 m -70, 0 a 70,70 0 1,1 140,0 a 70,70 0 1,1 -140,0 z M 299 578 m -70, 0 a 70,70 0 1,1 140,0 a 70,70 0 1,1 -140,0 z M 299 324 m -70, 0 a 70,70 0 1,1 140,0 a 70,70 0 1,1 -140,0 z M 299 70 m -70, 0 a 70,70 0 1,1 140,0 a 70,70 0 1,1 -140,0 z " horiz-adv-x="600" unicode="?"/>
<glyph d="M 70 324 m -70, 0 a 70,70 0 1,1 140,0 a 70,70 0 1,1 -140,0 z M 299 578 m -70, 0 a 70,70 0 1,1 140,0 a 70,70 0 1,1 -140,0 z M 299 324 m -70, 0 a 70,70 0 1,1 140,0 a 70,70 0 1,1 -140,0 z M 299 70 m -70, 0 a 70,70 0 1,1 140,0 a 70,70 0 1,1 -140,0 z " horiz-adv-x="600" unicode="W"/>
<glyph d="M 70 578 m -70, 0 a 70,70 0 1,1 140,0 a 70,70 0 1,1 -140,0 z M 70 324 m -70, 0 a 70,70 0 1,1 140,0 a 70,70 0 1,1 -140,0 z M 299 578 m -70, 0 a 70,70 0 1,1 140,0 a 70,70 0 1,1 -140,0 z M 299 324 m -70, 0 a 70,70 0 1,1 140,0 a 70,70 0 1,1 -140,0 z M 299 70 m -70, 0 a 70,70 0 1,1 140,0 a 70,70 0 1,1 -140,0 z " horiz-adv-x="600" unicode="]"/>
<glyph d="M 70 70 m -70, 0 a 70,70 0 1,1 140,0 a 70,70 0 1,1 -140,0 z M 299 578 m -70, 0 a 70,70 0 1,1 140,0 a 70,70 0 1,1 -140,0 z M 299 324 m -70, 0 a 70,70 0 1,1 140,0 a 70,70 0 1,1 -140,0 z M 299 70 m -70, 0 a 70,70 0 1,1 140,0 a 70,70 0 1,1 -140,0 z " horiz-adv-x="600" unicode="#"/>
<glyph d="M 70 578 m -70, 0 a 70,70 0 1,1 140,0 a 70,70 0 1,1 -140,0 z M 70 70 m -70, 0 a 70,70 0 1,1 140,0 a 70,70 0 1,1 -140,0 z M 299 578 m -70, 0 a 70,70 0 1,1 140,0 a 70,70 0 1,1 -140,0 z M 299 324 m -70, 0 a 70,70 0 1,1 140,0 a 70,70 0 1,1 -140,0 z M 299 70 m -70, 0 a 70,70 0 1,1 140,0 a 70,70 0 1,1 -140,0 z " horiz-adv-x="600" unicode="Y"/>
<glyph d="M 70 324 m -70, 0 a 70,70 0 1,1 140,0 a 70,70 0 1,1 -140,0 z M 70 70 m -70, 0 a 70,70 0 1,1 140,0 a 70,70 0 1,1 -140,0 z M 299 578 m -70, 0 a 70,70 0 1,1 140,0 a 70,70 0 1,1 -140,0 z M 299 324 m -70, 0 a 70,70 0 1,1 140,0 a 70,70 0 1,1 -140,0 z M 299 70 m -70, 0 a 70,70 0 1,1 140,0 a 70,70 0 1,1 -140,0 z " horiz-adv-x="600" unicode=")"/>
<glyph d="M 70 578 m -70, 0 a 70,70 0 1,1 140,0 a 70,70 0 1,1 -140,0 z M 70 324 m -70, 0 a 70,70 0 1,1 140,0 a 70,70 0 1,1 -140,0 z M 70 70 m -70, 0 a 70,70 0 1,1 140,0 a 70,70 0 1,1 -140,0 z M 299 578 m -70, 0 a 70,70 0 1,1 140,0 a 70,70 0 1,1 -140,0 z M 299 324 m -70, 0 a 70,70 0 1,1 140,0 a 70,70 0 1,1 -140,0 z M 299 70 m -70, 0 a 70,70 0 1,1 140,0 a 70,70 0 1,1 -140,0 z " horiz-adv-x="600" unicode="="/>
</font>
</defs>
</svg>
